<mxfile host="app.diagrams.net" modified="2021-02-23T15:46:22.359Z" agent="5.0 (Windows NT 10.0; Win64; x64) AppleWebKit/537.36 (KHTML, like Gecko) Chrome/87.0.4280.141 Safari/537.36 OPR/73.0.3856.400" etag="Fzudxi8KChKg2adXL2vi" version="14.4.2" type="github">
  <diagram id="kLXHV36WqbvgFVqG3zmY" name="Page-1">
    <mxGraphModel dx="789" dy="454" grid="1" gridSize="10" guides="1" tooltips="1" connect="1" arrows="1" fold="1" page="1" pageScale="1" pageWidth="827" pageHeight="1169" math="0" shadow="0">
      <root>
        <mxCell id="0" />
        <mxCell id="1" parent="0" />
        <mxCell id="-gJV76iz1MtKLo1k1teJ-9" style="edgeStyle=orthogonalEdgeStyle;rounded=0;orthogonalLoop=1;jettySize=auto;html=1;entryX=0.5;entryY=0;entryDx=0;entryDy=0;" edge="1" parent="1" source="-gJV76iz1MtKLo1k1teJ-1" target="-gJV76iz1MtKLo1k1teJ-3">
          <mxGeometry relative="1" as="geometry" />
        </mxCell>
        <mxCell id="-gJV76iz1MtKLo1k1teJ-1" value="" style="ellipse;whiteSpace=wrap;html=1;" vertex="1" parent="1">
          <mxGeometry x="354" y="90" width="120" height="80" as="geometry" />
        </mxCell>
        <mxCell id="-gJV76iz1MtKLo1k1teJ-2" value="Начало" style="text;html=1;strokeColor=none;fillColor=none;align=center;verticalAlign=middle;whiteSpace=wrap;rounded=0;" vertex="1" parent="1">
          <mxGeometry x="394" y="120" width="40" height="20" as="geometry" />
        </mxCell>
        <mxCell id="-gJV76iz1MtKLo1k1teJ-10" style="edgeStyle=orthogonalEdgeStyle;rounded=0;orthogonalLoop=1;jettySize=auto;html=1;entryX=0.5;entryY=0;entryDx=0;entryDy=0;" edge="1" parent="1" source="-gJV76iz1MtKLo1k1teJ-3" target="-gJV76iz1MtKLo1k1teJ-4">
          <mxGeometry relative="1" as="geometry" />
        </mxCell>
        <mxCell id="-gJV76iz1MtKLo1k1teJ-3" value="Ввод&amp;nbsp;&lt;br&gt;x: int" style="shape=parallelogram;perimeter=parallelogramPerimeter;whiteSpace=wrap;html=1;fixedSize=1;" vertex="1" parent="1">
          <mxGeometry x="354" y="210" width="120" height="60" as="geometry" />
        </mxCell>
        <mxCell id="-gJV76iz1MtKLo1k1teJ-13" style="edgeStyle=orthogonalEdgeStyle;rounded=0;orthogonalLoop=1;jettySize=auto;html=1;entryX=0.5;entryY=0;entryDx=0;entryDy=0;" edge="1" parent="1" source="-gJV76iz1MtKLo1k1teJ-4" target="-gJV76iz1MtKLo1k1teJ-11">
          <mxGeometry relative="1" as="geometry" />
        </mxCell>
        <mxCell id="-gJV76iz1MtKLo1k1teJ-14" style="edgeStyle=orthogonalEdgeStyle;rounded=0;orthogonalLoop=1;jettySize=auto;html=1;entryX=0.5;entryY=0;entryDx=0;entryDy=0;" edge="1" parent="1" source="-gJV76iz1MtKLo1k1teJ-4" target="-gJV76iz1MtKLo1k1teJ-15">
          <mxGeometry relative="1" as="geometry">
            <mxPoint x="240.02857142857147" y="460" as="targetPoint" />
          </mxGeometry>
        </mxCell>
        <mxCell id="-gJV76iz1MtKLo1k1teJ-4" value="x &amp;gt; 0" style="rhombus;whiteSpace=wrap;html=1;" vertex="1" parent="1">
          <mxGeometry x="354" y="330" width="120" height="90" as="geometry" />
        </mxCell>
        <mxCell id="-gJV76iz1MtKLo1k1teJ-6" value="Нет" style="text;html=1;strokeColor=none;fillColor=none;align=center;verticalAlign=middle;whiteSpace=wrap;rounded=0;" vertex="1" parent="1">
          <mxGeometry x="314" y="330" width="40" height="20" as="geometry" />
        </mxCell>
        <mxCell id="-gJV76iz1MtKLo1k1teJ-7" value="Да" style="text;html=1;strokeColor=none;fillColor=none;align=center;verticalAlign=middle;whiteSpace=wrap;rounded=0;" vertex="1" parent="1">
          <mxGeometry x="474" y="330" width="40" height="20" as="geometry" />
        </mxCell>
        <mxCell id="-gJV76iz1MtKLo1k1teJ-27" style="edgeStyle=orthogonalEdgeStyle;rounded=0;orthogonalLoop=1;jettySize=auto;html=1;" edge="1" parent="1" source="-gJV76iz1MtKLo1k1teJ-11" target="-gJV76iz1MtKLo1k1teJ-22">
          <mxGeometry relative="1" as="geometry" />
        </mxCell>
        <mxCell id="-gJV76iz1MtKLo1k1teJ-11" value="y = 2x - 10" style="rounded=0;whiteSpace=wrap;html=1;" vertex="1" parent="1">
          <mxGeometry x="514" y="450" width="120" height="60" as="geometry" />
        </mxCell>
        <mxCell id="-gJV76iz1MtKLo1k1teJ-19" style="edgeStyle=orthogonalEdgeStyle;rounded=0;orthogonalLoop=1;jettySize=auto;html=1;" edge="1" parent="1" source="-gJV76iz1MtKLo1k1teJ-15" target="-gJV76iz1MtKLo1k1teJ-18">
          <mxGeometry relative="1" as="geometry">
            <mxPoint x="370" y="590" as="targetPoint" />
          </mxGeometry>
        </mxCell>
        <mxCell id="-gJV76iz1MtKLo1k1teJ-21" style="edgeStyle=orthogonalEdgeStyle;rounded=0;orthogonalLoop=1;jettySize=auto;html=1;entryX=0.551;entryY=0.005;entryDx=0;entryDy=0;entryPerimeter=0;" edge="1" parent="1" source="-gJV76iz1MtKLo1k1teJ-15" target="-gJV76iz1MtKLo1k1teJ-20">
          <mxGeometry relative="1" as="geometry" />
        </mxCell>
        <mxCell id="-gJV76iz1MtKLo1k1teJ-15" value="x == 0:" style="rhombus;whiteSpace=wrap;html=1;" vertex="1" parent="1">
          <mxGeometry x="180" y="480" width="120" height="80" as="geometry" />
        </mxCell>
        <mxCell id="-gJV76iz1MtKLo1k1teJ-16" value="Да" style="text;html=1;strokeColor=none;fillColor=none;align=center;verticalAlign=middle;whiteSpace=wrap;rounded=0;" vertex="1" parent="1">
          <mxGeometry x="150" y="470" width="40" height="20" as="geometry" />
        </mxCell>
        <mxCell id="-gJV76iz1MtKLo1k1teJ-17" value="Нет" style="text;html=1;strokeColor=none;fillColor=none;align=center;verticalAlign=middle;whiteSpace=wrap;rounded=0;" vertex="1" parent="1">
          <mxGeometry x="274" y="470" width="40" height="20" as="geometry" />
        </mxCell>
        <mxCell id="-gJV76iz1MtKLo1k1teJ-26" style="edgeStyle=orthogonalEdgeStyle;rounded=0;orthogonalLoop=1;jettySize=auto;html=1;entryX=0.5;entryY=0;entryDx=0;entryDy=0;" edge="1" parent="1" source="-gJV76iz1MtKLo1k1teJ-18" target="-gJV76iz1MtKLo1k1teJ-22">
          <mxGeometry relative="1" as="geometry" />
        </mxCell>
        <mxCell id="-gJV76iz1MtKLo1k1teJ-18" value="y = 0&amp;nbsp;" style="rounded=0;whiteSpace=wrap;html=1;" vertex="1" parent="1">
          <mxGeometry x="40" y="600" width="120" height="60" as="geometry" />
        </mxCell>
        <mxCell id="-gJV76iz1MtKLo1k1teJ-25" style="edgeStyle=orthogonalEdgeStyle;rounded=0;orthogonalLoop=1;jettySize=auto;html=1;entryX=0.5;entryY=0;entryDx=0;entryDy=0;" edge="1" parent="1" source="-gJV76iz1MtKLo1k1teJ-20" target="-gJV76iz1MtKLo1k1teJ-22">
          <mxGeometry relative="1" as="geometry" />
        </mxCell>
        <mxCell id="-gJV76iz1MtKLo1k1teJ-20" value="y = 2|x| - 1" style="rounded=0;whiteSpace=wrap;html=1;" vertex="1" parent="1">
          <mxGeometry x="320" y="570" width="120" height="60" as="geometry" />
        </mxCell>
        <mxCell id="-gJV76iz1MtKLo1k1teJ-22" value="Вывод" style="shape=parallelogram;perimeter=parallelogramPerimeter;whiteSpace=wrap;html=1;fixedSize=1;" vertex="1" parent="1">
          <mxGeometry x="434" y="840" width="120" height="60" as="geometry" />
        </mxCell>
      </root>
    </mxGraphModel>
  </diagram>
</mxfile>
